# xmcd CD database file
#
# Track frame offsets:
#	150
#	13810
#	26745
#	38055
#	48021
#	55951
#	70872
#	81010
#	91321
#	103783
#	110658
#	119763
#	129947
#	136997
#	147975
#	160222
#	179439
#	200199
#	230883
#	254022
#
# Disc length: 3541 seconds
#
# Revision: 1
# Processed by: cddbd v1.5.1PL0 Copyright (c) Steve Scherf et al.
# Submitted via: CDex 1.50
#
DISCID=2a0dd314
DTITLE=Reverend Pearly Brown - You're Gonna Need That Pure Religion
DYEAR=2002
DGENRE=Blues
TTITLE0=God Don't Never Change
TTITLE1=Just A Closer Walk With Thee
TTITLE2=You're Gonna Need That Pure Religion
TTITLE3=Savior, Don't You Pass Me By
TTITLE4=Motherless Children
TTITLE5=Oh What A Morning
TTITLE6=I Must See Jesus
TTITLE7=Nobody's Fault But Mine
TTITLE8=I Know It Was The Blood
TTITLE9=By And By (I'm Gonna See The King)
TTITLE10=Keep Your Lamp Trimmed And Burning
TTITLE11=If I Never See You Anymore
TTITLE12=Ninety-Nine And A Half Won't Do
TTITLE13=It's A Mean Old orld
TTITLE14=The Great speckled Bird
TTITLE15=Keep Your Lamp Trimmed And Burning (take 2)
TTITLE16=You Gotta Move
TTITLE17=I'm On My Way To The Canaan Land
TTITLE18=Good By
TTITLE19=What A Morning
EXTD=YEAR: 2002
EXTT0=
EXTT1=
EXTT2=
EXTT3=
EXTT4=
EXTT5=
EXTT6=
EXTT7=
EXTT8=
EXTT9=
EXTT10=
EXTT11=
EXTT12=
EXTT13=
EXTT14=
EXTT15=
EXTT16=
EXTT17=
EXTT18=
EXTT19=
PLAYORDER=
